<svg width="4189" height="2040" viewBox="0 0 4189 2040" fill="none" xmlns="http://www.w3.org/2000/svg">
<path d="M0.437744 351.811C588.309 588.944 905.192 901.694 1087.95 1157.54C1240.3 1370.85 1237.59 1458.11 1399.36 1617.25C1750.42 1962.58 2422.91 2200.72 2748.83 1903.95C2909.38 1757.76 2849.99 1572.51 2926.79 1221.8C2995.87 906.315 3174.5 472.413 3673.19 0.850586" stroke="#00D4FF" stroke-width="2.34031" stroke-miterlimit="10"/>
<path d="M1.61365 428.319C573.416 632.116 887.13 926.338 1069.79 1165.78C1223.48 1367.31 1235.98 1447.9 1407.81 1604.3C1768.27 1932.41 2399.82 2160.84 2726.2 1883.94C2894.32 1741.32 2856.08 1559.24 2946.06 1209.56C3025.28 901.704 3207.55 475.222 3697.65 7.88867" stroke="#00D4FF" stroke-width="2.34031" stroke-miterlimit="10"/>
<path d="M2.78943 504.815C558.512 675.288 869.301 951.055 1051.67 1174.02C1207.02 1363.96 1234.09 1437.7 1416.29 1591.36C1785.35 1902.63 2377.74 2121.5 2703.62 1863.94C2879.67 1724.79 2861.92 1546.14 2965.37 1197.32C3054.4 897.178 3240.64 478.062 3722.17 14.9795" stroke="#00D4FF" stroke-width="2.34031" stroke-miterlimit="10"/>
<path d="M3.96533 581.323C543.608 718.47 851.779 975.848 1033.54 1182.32C1190.76 1360.81 1231.9 1427.58 1424.81 1578.41C1801.75 1873.27 2356.61 2082.75 2681.07 1843.93C2865.41 1708.25 2867.49 1533.2 2984.71 1185.08C3083.15 892.716 3273.76 480.903 3746.66 22.0391" stroke="#00D4FF" stroke-width="2.34031" stroke-miterlimit="10"/>
<path d="M5.14575 657.82C528.762 761.621 834.622 1000.64 1015.42 1190.5C1174.78 1357.83 1229.53 1417.55 1433.23 1565.47C1817.39 1844.34 2336.26 2044.63 2658.42 1823.92C2851.44 1691.69 2872.67 1520.35 3003.96 1172.84C3111.48 888.275 3306.8 483.733 3771.08 29.1514" stroke="#00D4FF" stroke-width="2.34031" stroke-miterlimit="10"/>
<path d="M6.32104 734.316C513.816 804.792 817.852 1025.44 997.292 1198.73C1159.14 1355.03 1226.77 1407.67 1441.71 1552.51C1832.5 1815.89 2316.73 2007.16 2635.82 1803.91C2837.86 1675.21 2877.49 1507.55 3023.26 1160.6C3139.51 883.822 3339.88 486.573 3795.57 36.1572" stroke="#00D4FF" stroke-width="2.34031" stroke-miterlimit="10"/>
<path d="M7.49695 810.813C498.912 847.911 801.55 1050.14 979.166 1206.97C1143.85 1352.39 1223.83 1397.96 1450.18 1539.57C1847.13 1787.91 2297.91 1970.37 2613.22 1783.9C2824.61 1658.89 2882.09 1494.76 3042.56 1148.37C3167.2 879.328 3373 489.414 3820.04 43.2275" stroke="#00D4FF" stroke-width="2.34031" stroke-miterlimit="10"/>
<path d="M8.71399 887.321C484.05 891.126 785.797 1074.72 961.081 1215.21C1129.03 1349.82 1220.77 1388.47 1458.69 1526.63C1861.36 1760.4 2279.76 1934.25 2590.66 1763.89C2811.73 1642.77 2886.32 1481.94 3061.91 1136.12C3194.56 874.782 3406.04 492.287 3844.52 50.2871" stroke="#00D4FF" stroke-width="2.34031" stroke-miterlimit="10"/>
<path d="M9.84924 963.817C469.105 934.297 770.513 1099.07 942.915 1223.45C1114.63 1347.3 1217.36 1379.27 1467.12 1513.68C1875.21 1733.36 2262.09 1898.8 2568.02 1743.89C2799.09 1626.91 2890.11 1469.02 3081.17 1123.88C3221.63 870.139 3439.12 495.085 3869.06 57.3457" stroke="#00D4FF" stroke-width="2.34031" stroke-miterlimit="10"/>
<path d="M11.0251 1040.28C454.212 977.438 755.833 1123.07 924.789 1231.66C1100.67 1344.69 1213.86 1370.17 1475.59 1500.7C1888.74 1706.74 2244.86 1863.97 2545.42 1723.85C2786.72 1611.35 2893.61 1455.94 3100.47 1111.61C3248.42 865.348 3472.22 497.895 3893.48 64.374" stroke="#00D4FF" stroke-width="2.34031" stroke-miterlimit="10"/>
<path d="M12.2045 1116.82C439.365 1020.64 741.727 1146.72 906.677 1239.92C1087.27 1341.98 1210.24 1361.47 1484.08 1487.78C1902.1 1680.61 2228.05 1829.85 2522.83 1703.88C2774.64 1596.26 2896.76 1442.75 3119.77 1099.4C3274.94 860.494 3505.3 500.767 3917.97 71.4863" stroke="#00D4FF" stroke-width="2.34031" stroke-miterlimit="10"/>
<path d="M13.3809 1193.32C424.409 1063.8 728.16 1169.84 888.552 1248.16C1074.38 1338.91 1206.54 1353.03 1492.54 1474.84C1915.3 1654.86 2211.53 1796.3 2500.23 1683.86C2762.79 1581.61 2899.59 1429.31 3139.07 1087.16C3301.25 855.458 3538.38 503.596 3942.44 78.5342" stroke="#00D4FF" stroke-width="2.34031" stroke-miterlimit="10"/>
<path d="M14.5568 1269.83C409.506 1106.97 715.058 1192.36 870.426 1256.41C1061.98 1335.36 1202.66 1344.88 1501.02 1461.9C1928.39 1629.51 2195.23 1763.35 2477.64 1663.85C2751.11 1567.5 2902.11 1415.62 3158.38 1074.92C3327.35 850.265 3571.46 506.437 3966.93 85.5938" stroke="#00D4FF" stroke-width="2.34031" stroke-miterlimit="10"/>
<path d="M15.7325 1346.32C394.613 1150.15 702.349 1214.23 852.3 1264.64C1050.01 1331.11 1198.76 1337.04 1509.47 1448.95C1941.38 1604.51 2179.05 1730.89 2455.02 1643.85C2739.65 1554.02 2904.31 1401.64 3177.66 1062.68C3353.3 844.89 3604.54 509.246 3991.4 92.6846" stroke="#00D4FF" stroke-width="2.34031" stroke-miterlimit="10"/>
<path d="M16.9084 1422.82C379.709 1193.31 689.894 1235.39 834.132 1272.88C1038.32 1325.94 1194.77 1329.49 1517.93 1436C1954.36 1579.85 2162.94 1699.06 2432.4 1623.84C2728.29 1541.24 2906.26 1387.35 3196.94 1050.4C3379.06 839.305 3637.59 512.076 4015.84 99.6807" stroke="#00D4FF" stroke-width="2.34031" stroke-miterlimit="10"/>
<path d="M18.0844 1499.33C364.858 1236.48 677.544 1255.82 816.048 1281.11C1026.87 1319.61 1190.84 1322.25 1526.44 1423.05C1967.38 1555.55 2146.89 1667.68 2409.85 1603.84C2717.07 1529.23 2908.02 1372.77 3216.28 1038.2C3404.8 833.592 3670.71 514.949 4040.36 106.782" stroke="#00D4FF" stroke-width="2.34031" stroke-miterlimit="10"/>
<path d="M19.3134 1575.82C349.955 1279.65 666.626 1313.89 797.976 1289.36C1012.82 1249.23 1186.91 1315.32 1534.97 1410.11C1980.47 1531.46 2130.74 1636.76 2387.25 1583.83C2705.86 1518.11 2909.54 1357.75 3235.58 1025.96C3430.41 827.688 3703.79 517.789 4064.84 113.884" stroke="#00D4FF" stroke-width="2.34031" stroke-miterlimit="10"/>
<path d="M20.4401 1652.32C335.013 1322.82 655.458 1326.29 779.801 1297.6C997.737 1247.31 1182.89 1308.67 1543.39 1397.17C1993.61 1507.72 2114.4 1606.3 2364.65 1563.81C2694.62 1507.87 2910.88 1342.41 3254.89 1013.7C3455.98 821.56 3736.88 520.598 4089.32 120.879" stroke="#00D4FF" stroke-width="2.34031" stroke-miterlimit="10"/>
<path d="M21.616 1728.83C320.109 1365.98 642.822 1337.47 761.675 1305.83C983.533 1246.78 1178.94 1302.32 1551.87 1384.27C2006.81 1484.18 2097.85 1576.18 2342.05 1543.87C2683.28 1498.7 2912.06 1326.75 3274.19 1001.53C3481.5 815.35 3769.97 523.492 4113.81 128.014" stroke="#00D4FF" stroke-width="2.34031" stroke-miterlimit="10"/>
<path d="M22.7917 1805.32C305.205 1409.16 624.898 1331.53 743.559 1314.07C977.289 1279.76 1175.04 1296.24 1560.35 1371.31C2020.16 1460.84 2081.02 1546.38 2319.46 1523.83C2671.77 1490.49 2913.12 1310.57 3293.51 989.235C3507.05 808.831 3803.07 526.301 4138.29 135.02" stroke="#00D4FF" stroke-width="2.34031" stroke-miterlimit="10"/>
<path d="M23.9683 1881.82C290.303 1452.33 610.122 1349.52 725.424 1322.31C962.482 1266.38 1171.18 1290.43 1568.81 1358.35C2033.59 1437.71 2063.8 1516.9 2296.86 1503.82C2660.01 1483.45 2914.1 1294.16 3312.79 977.024C3532.56 802.206 3836.13 529.163 4162.76 142.11" stroke="#00D4FF" stroke-width="2.34031" stroke-miterlimit="10"/>
<path d="M25.144 1958.33C275.409 1495.5 594.338 1367.54 707.298 1330.55C946.317 1252.24 1167.38 1284.88 1577.29 1345.39C2047.17 1414.75 2046.19 1487.66 2274.27 1483.8C2647.9 1477.44 2915 1277.31 3332.1 964.771C3558.11 795.433 3869.21 531.971 4187.25 149.148" stroke="#00D4FF" stroke-width="2.34031" stroke-miterlimit="10"/>
</svg>
