<svg width="281" height="236" viewBox="0 0 281 236" fill="none" xmlns="http://www.w3.org/2000/svg">
<path fill-rule="evenodd" clip-rule="evenodd" d="M55.969 0.276858C56.789 1.66986 64.574 14.3269 64.901 14.7989C65.115 15.1079 115.669 37.3179 138.43 47.1029C152.362 53.0929 154.665 55.2909 159.789 67.4839C161.87 72.4339 164.41 78.1429 165.435 80.1699L167.298 83.8549L170.06 81.1559C171.58 79.6719 174.755 76.8289 177.116 74.8379L181.409 71.2189L178.815 64.7399C177.388 61.1759 175.006 57.0969 173.522 55.6749C172.038 54.2539 152.373 44.4649 129.823 33.9229C107.273 23.3819 85.673 13.2779 81.823 11.4709C59.523 1.00286 55.326 -0.814142 55.969 0.276858ZM17.323 0.758852C17.323 1.58585 35.75 23.9959 40.182 28.5579C42.958 31.4159 46.78 33.7189 52.981 36.2689C73.75 44.8099 86.734 50.0509 100.823 55.5799C110.17 59.2479 116.954 62.5408 118.823 64.3168C120.473 65.8848 121.148 66.9599 120.323 66.7059C119.498 66.4509 109.598 63.2869 98.323 59.6729C48.239 43.6209 36.895 40.0779 36.584 40.3899C36.044 40.9299 58.824 62.3669 62.994 65.2429C67.385 68.2719 81.348 72.0359 116.171 79.5759C127.974 82.1319 131.989 83.6719 134.388 86.5619C135.657 88.0909 135.596 88.2098 133.815 87.6848C130.621 86.7438 120.766 85.1669 107.323 83.4469C100.448 82.5679 90.349 81.2149 84.882 80.4409C79.414 79.6669 74.772 79.2019 74.566 79.4079C74.051 79.9219 90.619 90.1008 97.888 93.7368C103.367 96.4758 105.318 96.8229 123.291 98.2469L142.76 99.7888L145.541 102.902C147.071 104.615 148.323 106.517 148.323 107.129C148.323 108.449 139.733 107.67 128.323 105.314C112.174 101.981 99.104 104.408 89.448 112.532L86.333 115.153L80.014 113.569C69.747 110.994 64.845 111.741 48.45 118.379C43.635 120.328 37.042 122.235 33.798 122.616L27.899 123.309L31.861 124.709C34.152 125.518 37.51 125.876 39.823 125.558C43.654 125.031 43.717 125.066 41.323 126.384C37.38 128.554 27.352 130.266 22.175 129.653C15.149 128.821 7.807 125.262 3.67 120.683L0 116.621L0.667 119.953C4.064 136.94 21.035 145.988 38.312 140.024C41.331 138.982 43.95 138.278 44.132 138.46C44.314 138.641 41.403 140.296 37.664 142.137C31.865 144.992 29.808 145.484 23.679 145.484C15.226 145.484 15.316 146.764 23.961 149.484C28.102 150.786 31.275 151.091 36.047 150.645C46.33 149.685 52.245 146.347 62.7 135.605C69.286 128.838 72.747 126.032 75.145 125.513C79.313 124.61 79.592 124.915 78.214 128.867C76.52 133.727 77.515 143.816 80.202 149.012C81.473 151.472 86.071 157.142 90.418 161.612C94.766 166.082 98.323 170.375 98.323 171.152C98.323 173.662 95.517 183.398 93.904 186.484C93.041 188.134 92.333 190.029 92.329 190.695C92.326 191.361 96.71 195.171 102.073 199.162C107.436 203.153 114.808 209.471 118.457 213.201C122.105 216.932 125.627 219.984 126.283 219.984C126.999 219.984 127.405 221.284 127.298 223.234C127.2 225.022 127.166 227.216 127.222 228.111C127.341 230.019 135.099 233.605 141.23 234.585L145.43 235.257L144.736 232.37C142.974 225.041 132.666 210.723 124.965 204.91C118.62 200.119 111.323 192.422 111.323 190.52C111.323 189.87 113.456 186.004 116.063 181.929C121.108 174.044 122.504 174.236 120.416 182.529C118.148 191.537 118.047 191.395 131.073 197.538C137.536 200.586 144.173 204.365 145.823 205.936C147.473 207.508 149.723 208.965 150.823 209.174C152.452 209.484 152.771 210.226 152.541 213.179C152.308 216.171 152.743 217.146 155.041 218.775C157.366 220.424 166.158 223.984 167.903 223.984C168.785 223.984 167.125 216.621 165.537 213.49C160.82 204.187 156.905 199.799 150.373 196.491C142.747 192.629 135.323 187.422 135.323 185.936C135.323 185.367 136.665 182.03 138.306 178.521C139.947 175.012 141.84 170.08 142.513 167.562C143.856 162.541 143.938 162.489 148.008 164.094C152.028 165.68 161.619 167.892 169.003 168.938C173.996 169.645 178.207 171.39 188.848 177.16C197.91 182.074 202.267 184.978 202.089 185.984C201.943 186.809 197.998 189.404 193.323 191.752C184.314 196.275 184.716 196.29 181.713 191.321C180.666 189.589 180.407 189.577 177.184 191.112C172.556 193.317 167.323 197.834 167.323 199.624C167.323 201.597 172.229 203.439 181.621 204.993L189.42 206.283L196.621 201.265C200.582 198.505 205.953 195.279 208.556 194.098C217.494 190.041 218.618 183.399 211.889 174.408L207.455 168.484L219.583 168.202C226.254 168.046 232.356 168.166 233.143 168.468C235.725 169.459 233.189 178.82 227.72 188.484C226.786 190.134 225.703 192.159 225.313 192.984C224.86 193.942 223.53 194.373 221.634 194.176C219.82 193.989 218.147 194.491 217.338 195.467C215.655 197.494 214.234 206.291 214.984 210.04L215.556 212.9L220.19 210.521C222.738 209.212 227.596 205.294 230.984 201.813C236.357 196.295 237.354 194.651 238.768 188.984C239.66 185.409 241.725 179.621 243.357 176.122C244.988 172.622 246.323 168.663 246.323 167.322C246.323 163.365 243.653 159.356 240.12 158.007C234.161 155.732 221.828 150.759 221.561 150.524C221.417 150.397 222.256 148.13 223.425 145.486C225.217 141.435 225.445 139.602 224.876 133.826C224.22 127.167 224.326 126.711 228.629 117.729C231.065 112.644 234.05 107.455 235.263 106.198L237.469 103.911L240.646 105.842C242.393 106.904 245.848 108.101 248.323 108.501C254.074 109.433 259.55 112.573 261.574 116.099C263.754 119.897 268.932 120.827 274.03 118.337C277.338 116.721 277.988 115.807 279.118 111.187L280.412 105.89L273.902 96.4868C270.321 91.3148 266.698 85.3738 265.85 83.2838C265.002 81.1938 262.304 77.6839 259.855 75.4839L255.401 71.4839L256.847 64.0518C257.642 59.9638 258.105 56.4319 257.875 56.2029C257.388 55.7159 247.852 60.6559 244.583 63.0889C242.51 64.6319 242.023 64.6359 238.083 63.1479C232.366 60.9879 210.797 61.0589 204.323 63.2579C200.731 64.4779 200.328 64.8219 202.323 64.9629C203.698 65.0599 207.073 65.9689 209.823 66.9839L214.823 68.8289L209.733 68.9059C206.933 68.9489 201.122 69.8839 196.819 70.9849C185.925 73.7709 174.744 80.4908 181.966 79.9118C186.709 79.5308 192.697 79.9429 192.036 80.6039C191.695 80.9459 189.387 81.6039 186.907 82.0669C184.428 82.5299 179.455 84.2859 175.857 85.9679L169.314 89.0269L170.909 92.7559C171.787 94.8059 172.724 97.0119 172.991 97.6569C173.259 98.3029 172.486 99.3619 171.273 100.011C168.529 101.479 168.984 102.181 161.205 84.4839C150.383 59.8649 149.611 58.4449 146.076 56.6589C144.287 55.7549 137.198 52.5789 130.323 49.5999C123.448 46.6219 103.198 37.7769 85.323 29.9459C25.248 3.62686 17.323 0.224852 17.323 0.758852ZM245.977 68.3969C243.162 71.2109 241.534 71.9359 236.693 72.5289C223.959 74.0899 210.162 80.4619 197.086 90.8209C187.213 98.6439 181.082 102.761 175.884 105.06L171.512 106.994L174.891 115.005C176.749 119.411 178.747 123.908 179.331 125C179.916 126.091 180.134 126.984 179.816 126.984C179.499 126.984 173.97 124.124 167.531 120.628L155.823 114.271L144.823 113.632C138.773 113.281 130.898 112.283 127.323 111.416C114.44 108.29 104.925 109.548 95.068 115.68C87.806 120.197 82.449 130.513 83.754 137.467C84.446 141.158 89.793 149.984 91.336 149.984C92.072 149.984 92.078 149.395 91.358 148.05C90.789 146.986 90.327 143.498 90.332 140.3L90.342 134.484L93.31 139.659C94.942 142.505 98.426 146.65 101.05 148.869C103.675 151.088 106.948 153.85 108.323 155.007L110.823 157.111L107.002 156.489C104.9 156.147 102.425 155.583 101.502 155.237C100.523 154.869 101.387 156.528 103.573 159.214C108.02 164.676 108.375 168.426 105.363 178.102C104.286 181.565 103.53 184.524 103.684 184.678C104.21 185.205 113.34 174.1 117.159 168.288C125.316 155.874 125.979 150.402 120.947 137.033L117.571 128.062L127.524 137.273C132.999 142.339 138.455 146.85 139.65 147.298C142.991 148.55 159.321 152.677 163.949 153.439L168.076 154.118L168.741 148.792C169.702 141.101 170.678 140.263 172.269 145.764C176.742 161.237 176.804 161.361 181.41 164.294C192.604 171.422 209.535 181.106 209.996 180.644C210.278 180.362 206.155 174.695 200.835 168.05L191.161 155.968L194.331 150.817L197.5 145.666L193.649 137.917C189.345 129.257 190.254 128.995 197.548 136.794C202.046 141.602 204.404 147.426 202.863 149.919C202.501 150.505 202.412 150.984 202.665 150.984C202.918 150.984 204.141 149.297 205.383 147.234C209.675 140.105 208.183 133.527 198.796 118.204L196.174 113.924L203.35 106.524C210.098 99.5649 217.255 93.7608 225.323 88.7068C228.466 86.7388 228.153 87.3299 222.26 94.4989C214.451 104 205.323 116.925 205.323 118.481C205.323 119.092 206.821 121.044 208.653 122.819L211.983 126.046L214.652 119.242C219.472 106.957 231.816 87.3918 236.234 85.0338C237.58 84.3158 237.85 84.9619 238.001 89.2509C238.212 95.2179 240.312 98.5038 245.703 101.301C249.023 103.024 249.922 103.107 253.292 101.994C256.968 100.781 257.287 100.865 261.641 104.189C264.13 106.09 267.349 109.049 268.792 110.765C271.879 114.433 273.854 114.08 274.729 109.704C275.272 106.989 274.544 105.368 269.477 98.0179C266.242 93.3239 262.831 87.9089 261.896 85.9839C260.962 84.0589 257.907 80.3989 255.109 77.8519L250.02 73.2189L251.065 69.1019C252.405 63.8219 250.777 63.5969 245.977 68.3969ZM251.016 85.0789C252.509 87.6369 260.323 93.0858 260.323 91.5688C260.323 89.0698 257.673 85.6928 254.403 84.0248C249.147 81.3428 248.884 81.4249 251.016 85.0789Z" fill="#00D4FF"/>
</svg>
