<svg width="219" height="302" viewBox="0 0 219 302" fill="none" xmlns="http://www.w3.org/2000/svg">
<path fill-rule="evenodd" clip-rule="evenodd" d="M182.248 10.601C168.3 33.167 155.42 49.145 132.073 72.848C114.064 91.131 110.273 95.477 109.823 98.348C109.525 100.252 109.093 108.335 108.864 116.31C108.356 133.986 106.463 140.499 98.852 150.767C96.016 154.593 92.861 159.543 91.842 161.767C88.936 168.109 86.228 176.31 87.041 176.31C87.447 176.31 91.413 174.073 95.855 171.34L103.932 166.369L115.813 166.928C131.333 167.659 136.132 169.221 142.726 175.693C151.199 184.009 152.627 188.949 152.726 210.31L152.808 227.81L156.01 234.718C157.772 238.517 158.945 241.892 158.618 242.218C157.581 243.25 143.974 228.2 136.445 217.692L129.195 207.573V197.442C129.195 191.869 128.858 187.319 128.445 187.331C128.032 187.342 126.138 190.53 124.234 194.414C122.012 198.947 119.819 201.97 118.11 202.854C115.534 204.186 103.048 207.555 96.483 208.69L93.272 209.245L92.983 200.527L92.695 191.81L90.333 198.31C89.034 201.885 86.93 206.835 85.657 209.31C82.75 214.96 79.986 230.045 79.702 241.81C79.481 250.963 78.573 256.31 77.238 256.31C76.832 256.31 75.7 254.539 74.724 252.374C73.416 249.474 73.127 247.251 73.625 243.928C73.998 241.439 73.813 237.604 73.211 235.368C72.611 233.14 71.291 226.784 70.277 221.244C68.85 213.436 67.869 210.567 65.916 208.49C64.531 207.016 62.002 203.584 60.296 200.864L57.195 195.918L57.207 199.864C57.213 202.034 57.846 206.166 58.612 209.045C59.894 213.86 59.873 214.207 58.35 213.374C56.403 212.308 50.242 205.881 47.746 202.31C46.002 199.815 46 199.82 46.45 205.061C46.843 209.626 46.707 210.15 45.412 209.075C40.015 204.596 35.607 191.509 36.908 183.83L37.695 179.186L42.051 185.816L46.407 192.445L49.591 185.128C51.342 181.103 54.591 175.11 56.811 171.81C62.755 162.973 62.993 162.503 60.637 164.251C59.569 165.044 56.108 168.18 52.945 171.22L47.195 176.747L47.252 170.779C47.283 167.496 48.091 156.485 49.048 146.31C50.973 125.841 50.837 125.95 55.293 141.31L57.179 147.81L56.652 140.137C56.362 135.916 55.459 129.841 54.645 126.637C52.971 120.047 45.895 105.014 45.549 107.31C45.424 108.135 45.051 110.88 44.72 113.41C43.846 120.086 39.501 124.31 33.511 124.31C31.065 124.31 28.193 123.844 27.129 123.275C26.017 122.68 25.195 122.634 25.195 123.167C25.195 123.678 22.481 126.988 19.164 130.525C14.012 136.018 12.721 136.894 10.304 136.539C8.07402 136.212 7.23999 135.363 6.37299 132.538C5.32199 129.114 5.54303 128.505 11.285 119C14.592 113.526 17.563 107.644 17.887 105.929C18.623 102.037 19.489 100.933 25.617 96.079C29.28 93.178 31.135 92.329 32.867 92.764C35.08 93.319 35.195 93.093 35.195 88.155V82.961L37.643 85.261C38.99 86.526 40.372 88.84 40.716 90.404C41.177 92.503 42.745 94.05 46.712 96.32C58.485 103.056 66.685 115.98 76.822 143.78C77.819 146.513 80.383 150.498 82.519 152.634L86.403 156.518L90.805 151.664C100.908 140.523 103.195 133.378 103.195 112.966C103.195 104.992 103.71 97.322 104.401 95.018C105.358 91.824 109.611 86.967 125.038 71.452L144.47 51.91L143.841 42.86C142.813 28.069 142.61 27.89 137.568 37.328C132.514 46.786 119.133 67.581 118.505 66.953C118.27 66.718 118.814 64.79 119.714 62.668C120.614 60.546 122.91 54.085 124.816 48.31C127.494 40.194 128.131 36.921 127.622 33.895C126.244 25.706 117.692 3.88498 116.218 4.79598C115.821 5.04098 115.222 8.74399 114.887 13.026C113.234 34.121 107.705 52.134 95.509 76.16C90.387 86.252 86.195 95.344 86.195 96.363C86.195 97.382 88.279 103.75 90.826 110.513C94.39 119.977 95.572 124.596 95.954 130.56C96.228 134.822 96.057 138.3 95.573 138.288C95.09 138.277 92.908 135.773 90.723 132.724C88.539 129.675 84.376 124.934 81.473 122.189C78.57 119.443 76.195 116.999 76.195 116.757C76.195 116.378 81.08 118.13 87.61 120.853C89.16 121.498 88.944 120.806 86.483 117.23C82.455 111.378 74.478 104.005 69.337 101.382C67.059 100.22 65.195 99.038 65.195 98.755C65.195 98.472 67.557 98.515 70.445 98.849L75.695 99.457L72.195 96.427C67.207 92.109 57.673 87.493 50.787 86.06C45.566 84.974 44.242 84.162 39.385 79.071C36.363 75.902 33.525 73.31 33.077 73.31C32.63 73.31 31.973 75.502 31.618 78.182C30.575 86.038 30.068 86.211 23.789 80.846L18.195 76.067V81.445C18.195 84.403 18.635 88.356 19.172 90.23C20.082 93.401 19.874 93.934 16.172 97.951C13.555 100.789 12.188 103.214 12.175 105.038C12.164 106.64 9.59 112.031 6.078 117.81L0 127.81L1.375 133.223C3.204 140.422 6.327 142.81 13.909 142.81C18.426 142.81 19.686 142.435 20.586 140.823C21.196 139.73 23.33 137.142 25.327 135.073C29.7 130.543 34.559 129.826 35.572 133.56C36.738 137.857 34.155 165.491 32.082 170.907C27.143 183.807 27.354 193.914 32.783 204.623C34.229 207.476 36.218 213.635 37.203 218.31C38.187 222.985 40.163 230.355 41.594 234.688C43.024 239.02 44.2 244.645 44.206 247.188C44.212 249.73 44.887 254.019 45.706 256.719C47.326 262.06 47.598 273.274 46.274 280.126C45.815 282.5 44.022 286.415 42.29 288.827C40.558 291.239 38.492 295.052 37.699 297.3L36.257 301.387L44.976 301.098L53.695 300.81L54.322 294.972C54.705 291.411 55.773 288.019 57.06 286.278C59.066 283.566 59.119 282.906 58.129 273.067C57.477 266.587 57.423 260.483 57.985 256.76C58.478 253.488 58.677 245.98 58.426 240.077C58.175 234.174 58.244 228.251 58.58 226.913C59.104 224.824 59.575 224.585 61.922 225.212C64.271 225.84 64.893 226.845 66.357 232.376C67.294 235.915 68.091 241.777 68.128 245.403C68.167 249.223 69.036 254.443 70.195 257.81C72.825 265.455 73.037 283.238 70.552 287.81C67.099 294.166 66.309 295.899 65.654 298.56L64.978 301.31H73.587H82.195V295.033C82.195 290.809 82.737 287.982 83.85 286.392C85.278 284.353 85.352 283.189 84.387 277.919C82.222 266.105 82.139 263.808 83.667 258.011C84.507 254.822 85.195 249.284 85.195 245.704C85.195 242.124 85.698 236.15 86.313 232.428L87.43 225.662L93.063 224.412C96.16 223.724 99.235 222.94 99.894 222.669C100.581 222.387 102.138 224.236 103.536 226.994C104.879 229.643 108.886 235.86 112.441 240.81C115.995 245.76 119.233 250.849 119.635 252.118C121.58 258.255 112.013 285.731 106.996 288.416C106.004 288.947 104.056 291.625 102.666 294.367C99.607 300.404 100.146 300.829 109.886 300.047C117.042 299.472 118.156 298.611 118.18 293.632C118.191 291.347 119.003 289.803 121.074 288.132C123.406 286.251 124.282 284.29 125.682 277.81C126.633 273.41 129.165 265.02 131.31 259.165L135.209 248.52L132.202 242.165C128.6 234.553 127.688 230.33 128.877 226.764C129.747 224.155 129.896 224.265 137.728 233.279C151.506 249.134 152.993 251.154 155.165 256.959C156.331 260.075 158.017 267.616 158.912 273.717L160.539 284.81L157.867 291.481C153.856 301.493 153.745 301.31 163.823 301.31H172.451L171.645 297.06C171.202 294.723 170.924 291.348 171.027 289.56C171.539 280.632 171.372 278.393 169.816 273.31C168.825 270.073 167.886 262.46 167.534 254.81C167.159 246.661 166.467 241.25 165.679 240.31C164.988 239.485 163.145 236.335 161.583 233.31C158.78 227.881 158.747 227.609 158.996 212.31C159.17 201.594 158.822 195.19 157.868 191.56C156.152 185.031 157.282 184.792 160.308 191.043C161.99 194.519 162.78 198.435 163.28 205.793C163.654 211.302 164.474 217.16 165.101 218.81C170.719 233.585 180.549 241.334 193.623 241.295C196.413 241.286 199.37 240.843 200.195 240.31C201.439 239.506 201.353 239.336 199.695 239.316C196.385 239.274 187.895 234.776 184.695 231.368L181.695 228.173L187.195 230.732C196.9 235.246 206.401 233.833 212.404 226.981C214.9 224.134 218.145 217.322 218.173 214.873C218.193 213.112 217.944 213.17 215.445 215.501C211.385 219.287 208.862 220.31 203.576 220.31C195.281 220.31 187.071 214.773 182.628 206.18L181.023 203.077L184.359 205.556C187.193 207.661 193.151 210.31 195.052 210.31C195.36 210.31 193.762 208.397 191.503 206.06C189.243 203.723 185.227 197.76 182.578 192.81C174.104 176.976 164.69 170.262 152.913 171.657C148.31 172.202 147.597 171.992 144.345 169.136C138.68 164.163 133.069 162.202 122.74 161.586L113.459 161.032L118.708 156.757C123.706 152.685 124.427 152.425 133.826 151.301C152.644 149.05 153.366 148.804 162.936 141.353C167.754 137.602 173.45 132.708 175.596 130.475L179.496 126.417L173.236 127.877C169.794 128.681 161.513 130.467 154.836 131.848C148.158 133.228 139.999 134.988 136.703 135.759C133.408 136.529 130.584 137.032 130.428 136.877C130.272 136.721 130.944 135.641 131.92 134.478C132.896 133.314 137.745 130.964 142.695 129.255C176.974 117.419 181.97 115.182 185.832 109.947C189.982 104.32 202.276 83.057 201.707 82.489C201.462 82.243 198.209 83.85 194.478 86.06C187.878 89.968 137.773 115.31 136.646 115.31C136.336 115.31 136.827 114.049 137.737 112.508C138.708 110.864 143.792 107.056 150.043 103.291C166.132 93.6 178.797 85.498 187.851 79.105C195.897 73.424 196.048 73.238 199.102 65.239C201.802 58.169 204.542 48.817 207.212 37.568L207.981 34.326L205.338 36.234C203.884 37.284 200.895 40.024 198.695 42.323C190.861 50.511 140.707 92.31 138.717 92.31C137.19 92.31 142.382 85.427 147.48 80.694C150.898 77.52 160.932 67.649 169.777 58.758L185.859 42.593L187.98 29.702C190.626 13.621 191.513 3.32698 190.486 0.628983C189.815 -1.13202 188.561 0.385984 182.248 10.601ZM30.695 103.536C29.045 104.123 27.373 105.1 26.98 105.707C26.587 106.313 25.053 108.835 23.573 111.31C20.918 115.747 20.914 115.78 23.288 113.677C24.612 112.504 27.13 110.819 28.884 109.933C31.881 108.419 35.195 104.824 35.195 103.087C35.195 102.119 34.474 102.191 30.695 103.536ZM11.671 129.385C11.309 130.527 11.225 131.673 11.485 131.933C12.095 132.543 15.195 129.456 15.195 128.239C15.195 126.413 12.317 127.35 11.671 129.385Z" fill="#00D4FF"/>
</svg>
